<svg width="16" height="16" viewBox="0 0 16 16" fill="none" xmlns="http://www.w3.org/2000/svg">
<circle cx="8" cy="8" r="7.25" stroke="#F4B23E" stroke-width="1.5"/>
<path d="M8.17086 12.3101C6.14076 12.3101 4.45051 10.8457 4.09814 8.91213L4.62563 8.91212L8.17086 8.91211L11.6287 8.91216L12.2436 8.91218C11.8912 10.8457 10.2009 12.3101 8.17086 12.3101Z" stroke="#F4B23E" stroke-width="1.5"/>
<path d="M7.28021 5.55273C7.28021 5.96695 6.94443 6.30273 6.53021 6.30273C6.116 6.30273 5.78021 5.96695 5.78021 5.55273H7.28021ZM4.66797 5.55273C4.66797 5.96695 4.33218 6.30273 3.91797 6.30273C3.50376 6.30273 3.16797 5.96695 3.16797 5.55273H4.66797ZM5.78021 5.55273C5.78021 5.2456 5.53123 4.99661 5.22409 4.99661V3.49661C6.35966 3.49661 7.28021 4.41717 7.28021 5.55273H5.78021ZM5.22409 4.99661C4.91695 4.99661 4.66797 5.2456 4.66797 5.55273H3.16797C3.16797 4.41717 4.08853 3.49661 5.22409 3.49661V4.99661Z" fill="#F4B23E"/>
<path d="M12.831 5.55273C12.831 5.96695 12.4952 6.30273 12.081 6.30273C11.6668 6.30273 11.331 5.96695 11.331 5.55273H12.831ZM10.2188 5.55273C10.2188 5.96695 9.88296 6.30273 9.46875 6.30273C9.05454 6.30273 8.71875 5.96695 8.71875 5.55273H10.2188ZM11.331 5.55273C11.331 5.2456 11.082 4.99661 10.7749 4.99661V3.49661C11.9104 3.49661 12.831 4.41717 12.831 5.55273H11.331ZM10.7749 4.99661C10.4677 4.99661 10.2188 5.2456 10.2188 5.55273H8.71875C8.71875 4.41717 9.63931 3.49661 10.7749 3.49661V4.99661Z" fill="#F4B23E"/>
</svg>
