<svg width="100" height="100" viewBox="0 0 100 100" fill="none" xmlns="http://www.w3.org/2000/svg">
<path d="M50.001 0.435852C22.6725 0.435852 0.438477 22.6699 0.438477 49.9983C0.438477 77.3268 22.6725 99.5608 50.001 99.5608C77.3294 99.5608 99.5635 77.3268 99.5635 49.9983C99.5635 22.6699 77.3294 0.435852 50.001 0.435852ZM75.7949 33.3878L43.7699 71.5128C43.4186 71.9312 42.9815 72.2692 42.4882 72.504C41.9948 72.7387 41.4568 72.8647 40.9105 72.8733H40.8462C40.3118 72.8731 39.7835 72.7606 39.2954 72.5431C38.8073 72.3255 38.3704 72.0078 38.013 71.6105L24.288 56.3605C23.9395 55.9908 23.6683 55.5551 23.4905 55.0791C23.3127 54.6031 23.2319 54.0964 23.2527 53.5887C23.2736 53.081 23.3957 52.5826 23.6119 52.1228C23.8281 51.663 24.134 51.251 24.5117 50.9111C24.8894 50.5713 25.3312 50.3103 25.8112 50.1436C26.2912 49.9769 26.7997 49.9078 27.3067 49.9404C27.8138 49.973 28.3092 50.1067 28.7639 50.3335C29.2186 50.5603 29.6233 50.8758 29.9544 51.2612L40.7461 63.2515L69.957 28.4839C70.6123 27.7264 71.5393 27.2571 72.5377 27.1776C73.5361 27.098 74.5258 27.4145 75.2927 28.0588C76.0597 28.703 76.5423 29.6231 76.6362 30.6203C76.7302 31.6175 76.428 32.6116 75.7949 33.3878Z" fill="currentColor"/>
</svg>
