<svg width="24" height="24" viewBox="0 0 24 24" fill="none" xmlns="http://www.w3.org/2000/svg">
<path d="M20.9788 4.50024H15.7499V2.25024C15.7499 2.05133 15.6709 1.86057 15.5302 1.71991C15.3896 1.57926 15.1988 1.50024 14.9999 1.50024H8.99988C8.80096 1.50024 8.6102 1.57926 8.46955 1.71991C8.32889 1.86057 8.24988 2.05133 8.24988 2.25024V4.50024H3.02097L2.99988 6.37524H4.54675L5.48847 21.094C5.51231 21.4746 5.68023 21.8319 5.95809 22.0931C6.23595 22.3543 6.60288 22.4999 6.98425 22.5002H17.0155C17.3967 22.5002 17.7635 22.355 18.0415 22.0943C18.3195 21.8335 18.4878 21.4767 18.5122 21.0963L19.453 6.37524H20.9999L20.9788 4.50024ZM8.24988 19.5002L7.828 7.50024H9.37488L9.79675 19.5002H8.24988ZM12.7499 19.5002H11.2499V7.50024H12.7499V19.5002ZM13.8749 4.50024H10.1249V3.18774C10.1249 3.13802 10.1446 3.09032 10.1798 3.05516C10.215 3.02 10.2626 3.00024 10.3124 3.00024H13.6874C13.7371 3.00024 13.7848 3.02 13.82 3.05516C13.8551 3.09032 13.8749 3.13802 13.8749 3.18774V4.50024ZM15.7499 19.5002H14.203L14.6249 7.50024H16.1717L15.7499 19.5002Z" fill="black"/>
</svg>
