<svg width="12" height="12" viewBox="0 0 1000 1000" fill="none" xmlns="http://www.w3.org/2000/svg">
<g clipPath="url(#clip0)">
<path d="M60.9598 740.08L275.246 525.794C281.938 519.097 285.698 510.017 285.698 500.549C285.698 491.081 281.938 482.001 275.246 475.303L60.9598 261.018C38.5491 238.652 0 254.545 0 286.286V714.857C0 746.799 38.683 762.402 60.9598 740.08ZM964.286 857.714H35.7143C26.2423 857.714 17.1582 861.477 10.4605 868.175C3.76274 874.872 0 883.956 0 893.428L0 964.857C0 974.329 3.76274 983.413 10.4605 990.111C17.1582 996.809 26.2423 1000.57 35.7143 1000.57H964.286C973.758 1000.57 982.842 996.809 989.54 990.111C996.237 983.413 1000 974.329 1000 964.857V893.428C1000 883.956 996.237 874.872 989.54 868.175C982.842 861.477 973.758 857.714 964.286 857.714ZM971.362 572H457.21C453.448 571.997 449.723 572.736 446.247 574.174C442.771 575.612 439.613 577.721 436.953 580.381C434.293 583.041 432.184 586.199 430.745 589.675C429.307 593.151 428.569 596.877 428.571 600.638V686.219C428.569 689.98 429.307 693.706 430.745 697.182C432.184 700.657 434.293 703.816 436.953 706.476C439.613 709.136 442.771 711.245 446.247 712.683C449.723 714.121 453.448 714.86 457.21 714.857H971.362C975.123 714.86 978.849 714.121 982.325 712.683C985.8 711.245 988.959 709.136 991.619 706.476C994.279 703.816 996.388 700.657 997.826 697.182C999.264 693.706 1000 689.98 1000 686.219V600.638C1000 596.877 999.264 593.151 997.826 589.675C996.388 586.199 994.279 583.041 991.619 580.381C988.959 577.721 985.8 575.612 982.325 574.174C978.849 572.736 975.123 571.997 971.362 572ZM971.362 286.286H457.21C453.448 286.283 449.723 287.021 446.247 288.46C442.771 289.898 439.613 292.007 436.953 294.667C434.293 297.327 432.184 300.485 430.745 303.961C429.307 307.437 428.569 311.162 428.571 314.924V400.504C428.569 404.266 429.307 407.991 430.745 411.467C432.184 414.943 434.293 418.101 436.953 420.761C439.613 423.421 442.771 425.531 446.247 426.969C449.723 428.407 453.448 429.146 457.21 429.143H971.362C975.123 429.146 978.849 428.407 982.325 426.969C985.8 425.531 988.959 423.421 991.619 420.761C994.279 418.101 996.388 414.943 997.826 411.467C999.264 407.991 1000 404.266 1000 400.504V314.924C1000 311.162 999.264 307.437 997.826 303.961C996.388 300.485 994.279 297.327 991.619 294.667C988.959 292.007 985.8 289.898 982.325 288.46C978.849 287.021 975.123 286.283 971.362 286.286ZM964.286 0.571289H35.7143C26.2423 0.571289 17.1582 4.33403 10.4605 11.0318C3.76274 17.7295 0 26.8136 0 36.2856L0 107.714C0 117.186 3.76274 126.27 10.4605 132.968C17.1582 139.666 26.2423 143.428 35.7143 143.428H964.286C973.758 143.428 982.842 139.666 989.54 132.968C996.237 126.27 1000 117.186 1000 107.714V36.2856C1000 26.8136 996.237 17.7295 989.54 11.0318C982.842 4.33403 973.758 0.571289 964.286 0.571289Z" fill="currentColor"/>
</g>
<defs>
<clipPath id="clip0">
<rect width="1000" height="1000" fill="white"/>
</clipPath>
</defs>
</svg>