<svg width="12" height="12" viewBox="0 0 1143 1000" fill="none" xmlns="http://www.w3.org/2000/svg">
<path d="M0 20.5713C0 9.52561 8.95431 0.571289 20 0.571289H1122.86C1133.9 0.571289 1142.86 9.52559 1142.86 20.5713V123.428C1142.86 134.474 1133.9 143.428 1122.86 143.428H20C8.95436 143.428 0 134.474 0 123.428V20.5713ZM0 234.857C0 223.811 8.9543 214.857 20 214.857H694.286C705.331 214.857 714.286 223.811 714.286 234.857V337.714C714.286 348.76 705.331 357.714 694.286 357.714H20C8.9543 357.714 0 348.76 0 337.714V234.857ZM0 663.428C0 652.383 8.9543 643.428 20 643.428H694.286C705.331 643.428 714.286 652.383 714.286 663.428V766.286C714.286 777.331 705.331 786.286 694.286 786.286H20C8.9543 786.286 0 777.331 0 766.286V663.428ZM0 449.143C0 438.097 8.95431 429.143 20 429.143H1122.86C1133.9 429.143 1142.86 438.097 1142.86 449.143V552C1142.86 563.046 1133.9 572 1122.86 572H20C8.95436 572 0 563.046 0 552V449.143ZM0 877.714C0 866.669 8.95431 857.714 20 857.714H1122.86C1133.9 857.714 1142.86 866.668 1142.86 877.714V980.571C1142.86 991.617 1133.9 1000.57 1122.86 1000.57H20C8.95436 1000.57 0 991.617 0 980.571V877.714Z" fill="currentColor"/>
</svg>