<svg width="12" height="12" viewBox="0 0 1143 1000" fill="none" xmlns="http://www.w3.org/2000/svg">
<g clip-path="url(#clip0)">
<path d="M0 20C0 8.95432 8.95431 0 20 0H1122.86C1133.9 0 1142.86 8.9543 1142.86 20V122.857C1142.86 133.903 1133.9 142.857 1122.86 142.857H20C8.95436 142.857 0 133.903 0 122.857V20ZM428.571 234.286C428.571 223.24 437.526 214.286 448.571 214.286H1122.86C1133.9 214.286 1142.86 223.24 1142.86 234.286V337.143C1142.86 348.189 1133.9 357.143 1122.86 357.143H448.571C437.526 357.143 428.571 348.189 428.571 337.143V234.286ZM428.571 662.857C428.571 651.812 437.526 642.857 448.571 642.857H1122.86C1133.9 642.857 1142.86 651.811 1142.86 662.857V765.714C1142.86 776.76 1133.9 785.714 1122.86 785.714H448.571C437.526 785.714 428.571 776.76 428.571 765.714V662.857ZM0 448.571C0 437.526 8.95431 428.571 20 428.571H1122.86C1133.9 428.571 1142.86 437.526 1142.86 448.571V551.429C1142.86 562.474 1133.9 571.429 1122.86 571.429H20C8.95436 571.429 0 562.474 0 551.429V448.571ZM0 877.143C0 866.097 8.95431 857.143 20 857.143H1122.86C1133.9 857.143 1142.86 866.097 1142.86 877.143V980C1142.86 991.046 1133.9 1000 1122.86 1000H20C8.95436 1000 0 991.046 0 980V877.143Z" fill="currentColor"/>
</g>
<defs>
<clipPath id="clip0">
<rect width="1142.86" height="1000" fill="white"/>
</clipPath>
</defs>
</svg>
