<svg width="12" height="12" viewBox="0 0 870 1000" fill="none" xmlns="http://www.w3.org/2000/svg">
<g clip-path="url(#clip0)">
<path d="M858.696 896.739H10.8696C4.8913 896.739 0 901.359 0 907.065V989.674C0 995.38 4.8913 1000 10.8696 1000H858.696C864.674 1000 869.565 995.38 869.565 989.674V907.065C869.565 901.359 864.674 896.739 858.696 896.739ZM434.783 793.478C529.076 793.478 617.663 756.658 684.511 689.946C751.359 623.234 788.044 534.511 788.044 440.217V16.3043C788.044 7.33696 780.707 0 771.739 0H690.217C681.25 0 673.913 7.33696 673.913 16.3043V440.217C673.913 572.011 566.576 679.348 434.783 679.348C302.989 679.348 195.652 572.011 195.652 440.217V16.3043C195.652 7.33696 188.315 0 179.348 0H97.8261C88.8587 0 81.5217 7.33696 81.5217 16.3043V440.217C81.5217 534.511 118.342 623.098 185.054 689.946C251.766 756.793 340.489 793.478 434.783 793.478Z" fill="currentColor"/>
</g>
<defs>
<clipPath id="clip0">
<rect width="869.565" height="1000" fill="white"/>
</clipPath>
</defs>
</svg>