<svg width="12" height="12" viewBox="0 0 17 17" fill="none" xmlns="http://www.w3.org/2000/svg">
<path d="M15.4062 12.7629C15.2575 12.7627 15.1105 12.7314 14.9746 12.6709C14.943 12.6569 14.9129 12.6397 14.8846 12.6198L12.1384 10.6867C11.9991 10.5886 11.8855 10.4585 11.807 10.3074C11.7285 10.1562 11.6875 9.98839 11.6875 9.81807V7.18174C11.6875 7.01142 11.7285 6.84361 11.807 6.69244C11.8855 6.54128 11.9991 6.41119 12.1384 6.31315L14.8846 4.38007C14.9129 4.36009 14.943 4.34296 14.9746 4.32893C15.1364 4.25701 15.3135 4.22665 15.49 4.24061C15.6665 4.25457 15.8367 4.31241 15.9852 4.40887C16.1336 4.50533 16.2556 4.63735 16.3401 4.79294C16.4245 4.94853 16.4687 5.12276 16.4687 5.29979V11.7C16.4687 11.9818 16.3568 12.2521 16.1575 12.4513C15.9583 12.6506 15.688 12.7625 15.4062 12.7625V12.7629Z" fill="currentColor"/>
<path d="M8.89843 13.2812H2.78906C2.19044 13.2806 1.61652 13.0426 1.19323 12.6193C0.769939 12.196 0.531865 11.6221 0.53125 11.0234V5.97656C0.531865 5.37794 0.769939 4.80402 1.19323 4.38073C1.61652 3.95744 2.19044 3.71937 2.78906 3.71875H8.91437C9.50874 3.71945 10.0786 3.95588 10.4988 4.37616C10.9191 4.79644 11.1555 5.36626 11.1562 5.96062V11.0234C11.1556 11.6221 10.9176 12.196 10.4943 12.6193C10.071 13.0426 9.49705 13.2806 8.89843 13.2812V13.2812Z" fill="currentColor"/>
</svg>